# xmcd
#
# Track frame offsets: 
#        150
#        10661
#        26076
#        34868
#        47287
#        61074
#        73678
#        85780
#        100531
#        115060
#        128106
#        142526
#        152482
#        166699
#        178550
#        191007
#        205178
#        217335
#        231937
#        244404
#        256782
#        267450
#
# Disc length: 3745 seconds
#
# Revision: 3
# Processed by: cddbd v1.5.2PL0 Copyright (c) Steve Scherf et al.
# Submitted via: ExactAudioCopy v0.99pb5
#
DISCID=200e9f16
DTITLE=Various Artist - CD 10 Gospel fever - God bless you
DYEAR=2009
DGENRE=Gospel
TTITLE0=The Pilgrim Travelers - Good News
TTITLE1=Mahalia Jackson - I Wonder If I Will Rest
TTITLE2=Golden Gate Quartet - Pure Religion
TTITLE3=Sister Rosetta Tharpe - Everybody Gonna Have ...
TTITLE4=Mitchell's Christian Singers - Them Bones
TTITLE5=Dorothy Love Coates - Get Away Jordan
TTITLE6=The Jubilaires - May God Called Me This Morning
TTITLE7=Bessie Smith - Moan, You Moaners
TTITLE8=Blind Willie Johnson - Let Your Light Shine On Me
TTITLE9=Clarence Williams - Old Time Religion
TTITLE10=Marie Knight and Sister Rosetta Tharpe - My Journey To The Sky
TTITLE11=Golden Gate Quartet - The Sun Didn't Shine
TTITLE12=Mahalia Jackson - If You Just Keep Still
TTITLE13=The Selah Singers - Down Here I've Done My Best
TTITLE14=Charioteers - Wade In The Water
TTITLE15=Joshua White - Jesus Gonna Make Up My Dying Bed
TTITLE16=Elder Charles Beck and His Congregation - Gabriel
TTITLE17=Southern Sons - I'm Free At Last
TTITLE18=Mitchell's Christian Singers - When The Saints Go Marching In
TTITLE19=Blind Boy Fuller - Twelve Gates To The City
TTITLE20=The Orioles - The Lord's Prayer
TTITLE21=Rev. J.C. Burnett - True Friendship
EXTD=
EXTT0=
EXTT1=
EXTT2=
EXTT3=
EXTT4=
EXTT5=
EXTT6=
EXTT7=
EXTT8=
EXTT9=
EXTT10=
EXTT11=
EXTT12=
EXTT13=
EXTT14=
EXTT15=
EXTT16=
EXTT17=
EXTT18=
EXTT19=
EXTT20=
EXTT21=
PLAYORDER=
